<?xml version="1.0" encoding="UTF-8"?>
<svg width="24px" height="24px" viewBox="0 0 24 24" version="1.1" xmlns="http://www.w3.org/2000/svg" xmlns:xlink="http://www.w3.org/1999/xlink">
    <title>83B316CD-151D-416D-BAB6-798FB786873A</title>
    <g id="Page-1" stroke="none" stroke-width="1" fill="none" fill-rule="evenodd">
        <g id="style-guide" transform="translate(-652.000000, -1942.000000)">
            <g id="Group" transform="translate(0.000000, 1660.000000)">
                <g id="icon-caption-active" transform="translate(652.000000, 282.000000)">
                    <polygon id="container" points="0 0 24 0 24 24 0 24"></polygon>
                    <path d="M7.74727253,23.7680018 C7.98169474,23.6133374 8.26905039,23.3813415 8.60933949,23.0720141 L12.5226761,19.5108718 L18.804901,19.5108718 C19.9316387,19.5108718 20.8806703,19.3040092 21.6519959,18.8902838 C22.4233215,18.4765584 23.0074869,17.8753013 23.4044921,17.0865124 C23.8014974,16.2977234 24,15.3349385 24,14.1981575 L24,5.31271432 C24,4.17593334 23.8014974,3.21314839 23.4044921,2.42435946 C23.0074869,1.63557053 22.4233215,1.03431339 21.6519959,0.620588034 C20.8806703,0.206862678 19.9316387,0 18.804901,0 L5.195099,0 C4.06836129,0 3.11932965,0.206862678 2.34800408,0.620588034 C1.57667851,1.03431339 0.992513101,1.63557053 0.59550786,2.42435946 C0.19850262,3.21314839 0,4.17593334 0,5.31271432 L0,14.1981575 C0,15.3349385 0.19850262,16.2977234 0.59550786,17.0865124 C0.992513101,17.8753013 1.57667851,18.4765584 2.34800408,18.8902838 C3.11932965,19.3040092 4.06836129,19.5108718 5.195099,19.5108718 L5.73956318,19.5108718 L5.73956318,22.5268257 C5.73956318,22.9753506 5.84732177,23.3330108 6.06283895,23.5998063 C6.27835613,23.8666021 6.58272635,24 6.9759496,24 C7.25574109,24 7.51284962,23.9226662 7.74727253,23.7680018 Z" id="Path" fill="#00759F" fill-rule="nonzero"></path>
                    <path d="M5.39932653,14.3837265 L7.32763518,14.3837265 C7.50912324,14.3837265 7.66225376,14.3199276 7.78702673,14.1923296 C7.91179971,14.0647317 7.97418619,13.9081342 7.97418619,13.7225371 C7.97418619,13.529207 7.91179971,13.3668095 7.78702673,13.2353447 C7.66225376,13.1038802 7.50912324,13.038148 7.32763518,13.038148 L5.39932653,13.038148 C5.21783847,13.038148 5.06470795,13.1038802 4.93993498,13.2353447 C4.815162,13.3668091 4.75277551,13.5292066 4.75277551,13.7225371 C4.75277551,13.9081342 4.815162,14.0647317 4.93993498,14.1923296 C5.06470795,14.3199276 5.21783847,14.3837265 5.39932653,14.3837265 Z" id="Path" fill="#FFFFFF" fill-rule="nonzero"></path>
                    <path d="M15.3585043,14.3837265 C15.5399923,14.3837265 15.6931228,14.3199276 15.8178958,14.1923296 C15.9426688,14.0647317 16.0050553,13.9081342 16.0050553,13.7225371 C16.0050553,13.529207 15.9426688,13.3668095 15.8178958,13.2353447 C15.6931228,13.1038802 15.5399923,13.038148 15.3585043,13.038148 L9.66429329,13.038148 C9.48280523,13.038148 9.32967471,13.1038802 9.20490174,13.2353447 C9.08012876,13.3668091 9.01774227,13.5292066 9.01774227,13.7225371 C9.01774227,13.9081342 9.08012876,14.0647317 9.20490174,14.1923296 C9.32967471,14.3199276 9.48280523,14.3837265 9.66429329,14.3837265 L15.3585043,14.3837265 Z" id="Path" fill="#FFFFFF" fill-rule="nonzero"></path>
                    <path d="M17.6951201,14.3837265 L18.7595488,14.3837265 C18.9410368,14.3837265 19.0941674,14.3199276 19.2189403,14.1923296 C19.3437133,14.0647317 19.4060998,13.9081342 19.4060998,13.7225371 C19.4060998,13.529207 19.3437133,13.3668095 19.2189403,13.2353447 C19.0941674,13.1038802 18.9410368,13.038148 18.7595488,13.038148 L17.6951201,13.038148 C17.5136321,13.038148 17.3605015,13.1038802 17.2357286,13.2353447 C17.1109556,13.3668091 17.0485691,13.5292066 17.0485691,13.7225371 C17.0485691,13.9081342 17.1109556,14.0647317 17.2357286,14.1923296 C17.3605015,14.3199276 17.5136321,14.3837265 17.6951201,14.3837265 Z" id="Path" fill="#FFFFFF" fill-rule="nonzero"></path>
                    <path d="M5.39928429,11.3445724 L10.0726005,11.3445724 C10.2540886,11.3445724 10.4091095,11.2807734 10.5376635,11.1531755 C10.6662174,11.0255775 10.7304943,10.8651133 10.7304943,10.6717828 C10.7304943,10.4939188 10.6662174,10.3373213 10.5376635,10.2019903 C10.4091095,10.066659 10.2540886,9.99899328 10.0726005,9.99899328 L5.39928429,9.99899328 C5.21779623,9.99899328 5.06466571,10.066659 4.93989274,10.2019903 C4.81511976,10.3373217 4.75273328,10.4939192 4.75273328,10.6717828 C4.75273328,10.865113 4.81511976,11.0255772 4.93989274,11.1531755 C5.06466571,11.2807734 5.21779623,11.3445724 5.39928429,11.3445724 Z" id="Path" fill="#FFFFFF" fill-rule="nonzero"></path>
                    <path d="M18.7595171,11.3445724 C18.9410052,11.3445724 19.0941357,11.2807734 19.2189087,11.1531755 C19.3436816,11.0255775 19.4060681,10.8651133 19.4060681,10.6717828 C19.4060681,10.4939188 19.3436816,10.3373213 19.2189087,10.2019903 C19.0941357,10.066659 18.9410052,9.99899328 18.7595171,9.99899328 L12.4205887,9.99899328 C12.2391007,9.99899328 12.0840797,10.066659 11.9555258,10.2019903 C11.8269719,10.3373217 11.7626949,10.4939192 11.7626949,10.6717828 C11.7626949,10.865113 11.8269719,11.0255772 11.9555258,11.1531755 C12.0840797,11.2807734 12.2391007,11.3445724 12.4205887,11.3445724 L18.7595171,11.3445724 Z" id="Path" fill="#FFFFFF" fill-rule="nonzero"></path>
                </g>
            </g>
        </g>
    </g>
</svg>