<?xml version="1.0" encoding="UTF-8"?>
<svg width="24px" height="24px" viewBox="0 0 24 24" version="1.1" xmlns="http://www.w3.org/2000/svg" xmlns:xlink="http://www.w3.org/1999/xlink">
    <title>0F21C30E-2FED-4DFB-A182-70394B6C963C</title>
    <g id="Page-1" stroke="none" stroke-width="1" fill="none" fill-rule="evenodd">
        <g id="style-guide" transform="translate(-408.000000, -2038.000000)">
            <g id="Group" transform="translate(0.000000, 1660.000000)">
                <g id="icon-PDF" transform="translate(408.000000, 378.000000)">
                    <polygon id="container" points="0 0 24 0 24 24 0 24"></polygon>
                    <path d="M9.0425,12.2683381 C8.955,12.2300048 8.77083333,12.2283381 8.77083333,12.4050048 L8.77083333,15.7200042 C8.77371059,15.7843187 8.80762543,15.8432355 8.86179563,15.8780237 C8.91596583,15.9128119 8.98365126,15.919143 9.04333333,15.8950042 C9.76385409,15.5798904 10.2294534,14.868085 10.2294534,14.0816712 C10.2294534,13.2952573 9.76385409,12.583452 9.04333333,12.2683381 L9.0425,12.2683381 Z M5.33333333,12.1025048 L4.81416667,12.1025048 C4.69818687,12.1025048 4.60416667,12.196525 4.60416667,12.3125048 L4.60416667,13.350838 C4.60416667,13.4065334 4.6262916,13.4599477 4.66567424,13.4993304 C4.70505688,13.538713 4.7584712,13.5608379 4.81416667,13.5608379 L5.33333333,13.5608379 C5.73604096,13.5608379 6.0625,13.2343789 6.0625,12.8316714 C6.0625,12.4289638 5.73604096,12.1025048 5.33333333,12.1025048 L5.33333333,12.1025048 Z M17,17.8333372 L17,10.3333384 C17,9.87310123 16.626904,9.50000525 16.1666667,9.50000525 L2.83333333,9.50000525 C2.37309604,9.50000525 2,9.87310123 2,10.3333384 L2,17.8333372 C2,18.2935745 2.37309604,18.6666704 2.83333333,18.6666704 L16.1666667,18.6666704 C16.626904,18.6666704 17,18.2935745 17,17.8333372 Z M5.33333333,14.6025044 L4.81416667,14.6025044 C4.7584712,14.6025044 4.70505688,14.6246294 4.66567424,14.664012 C4.6262916,14.7033946 4.60416667,14.7568089 4.60416667,14.8125044 L4.60416667,16.5833374 C4.60416667,16.8709857 4.37098164,17.1041707 4.08333333,17.1041707 C3.79568503,17.1041707 3.5625,16.8709857 3.5625,16.5833374 L3.5625,11.5833382 C3.5625,11.29569 3.79568503,11.062505 4.08333333,11.062505 L5.33333333,11.062505 C6.31133758,11.062505 7.10416667,11.855334 7.10416667,12.833338 C7.10416667,13.8113421 6.31133758,14.6041711 5.33333333,14.6041711 L5.33333333,14.6025044 Z M8.25,17.102504 C7.96235169,17.102504 7.72916667,16.869319 7.72916667,16.5816708 L7.72916667,11.5816716 C7.72916667,11.2940233 7.96235169,11.0608383 8.25,11.0608383 C9.91836018,11.0608383 11.2708333,12.4133113 11.2708333,14.0816712 C11.2708333,15.7500311 9.91836018,17.102504 8.25,17.102504 Z M14.9166667,12.1025048 L13.25,12.1025048 C13.077411,12.1025048 12.9375,12.2424158 12.9375,12.4150048 L12.9375,13.350838 C12.9375,13.4065334 12.9596249,13.4599477 12.9990076,13.4993304 C13.0383902,13.538713 13.0918045,13.5608383 13.1475,13.5608383 L14.0833333,13.5608383 C14.3709816,13.5608383 14.6041667,13.7940229 14.6041667,14.0816712 C14.6041667,14.3693194 14.3709816,14.6025044 14.0833333,14.6025044 L13.1475,14.6025044 C13.0315202,14.6025044 12.9375,14.6965246 12.9375,14.8125044 L12.9375,16.5833374 C12.9375,16.8709857 12.704315,17.1041707 12.4166667,17.1041707 C12.1290184,17.1041707 11.8958333,16.8709857 11.8958333,16.5833374 L11.8958333,12.4166714 C11.8958333,11.6685159 12.5018449,11.061758 13.25,11.0608383 L14.9166667,11.0608383 C15.204315,11.0608383 15.4375,11.2940233 15.4375,11.5816716 C15.4375,11.8693198 15.204315,12.1025048 14.9166667,12.1025048 L14.9166667,12.1025048 Z M21.7558333,6.75417235 L17.2441667,2.24250641 C17.0874458,2.08662198 16.8752119,1.99939026 16.6541667,2.00000321 L7,2.00000321 C6.07952542,2.00000321 5.33333333,2.74619841 5.33333333,3.66667285 L5.33333333,8.45833875 C5.33333333,8.57339805 5.42660734,8.66667205 5.54166667,8.66667205 L6.79166667,8.66667205 C6.84721009,8.66667383 6.90045464,8.64449585 6.93957298,8.60506457 C6.97869132,8.56563328 7.00044435,8.51221372 7,8.45667208 L7,4.08333945 C7,3.85322084 7.18654802,3.66667285 7.41666667,3.66667285 L15.9583333,3.66667285 C16.0733927,3.66667285 16.1666667,3.75994685 16.1666667,3.87500615 L16.1666667,6.16667245 C16.1666667,7.08714688 16.9128588,7.83333885 17.8333333,7.83333885 L20.125,7.83333885 C20.2400593,7.83333885 20.3333333,7.92661284 20.3333333,8.04167215 L20.3333333,19.9166702 C20.3333333,20.1467889 20.1467853,20.3333368 19.9166667,20.3333368 L7.20833333,20.3333368 C7.09327401,20.3333368 7,20.2400628 7,20.1250035 L7,19.7083369 C7.00044599,19.6530926 6.9787546,19.5999695 6.93976803,19.5608263 C6.90078146,19.5216832 6.8477457,19.4997791 6.7925,19.5000032 L5.54166667,19.5000032 C5.42660734,19.5000032 5.33333333,19.5932776 5.33333333,19.7083369 L5.33333333,20.3333368 C5.33333333,21.2538113 6.07952542,22.0000032 7,22.0000032 L20.3333333,22.0000032 C21.2538079,22.0000032 22,21.2538113 22,20.3333368 L22,7.34333893 C22,7.12234328 21.9121245,6.91041627 21.7558333,6.75417235 Z" id="Shape" fill="#FFFFFF" fill-rule="nonzero"></path>
                </g>
            </g>
        </g>
    </g>
</svg>