<?xml version="1.0" encoding="UTF-8"?>
<svg width="24px" height="24px" viewBox="0 0 24 24" version="1.1" xmlns="http://www.w3.org/2000/svg" xmlns:xlink="http://www.w3.org/1999/xlink">
    <title>2556A6D7-7B23-4CA0-8D84-306B65CC7ACA</title>
    <g id="Page-1" stroke="none" stroke-width="1" fill="none" fill-rule="evenodd">
        <g id="style-guide" transform="translate(-312.000000, -2038.000000)">
            <g id="Group" transform="translate(0.000000, 1660.000000)">
                <g id="icon-info" transform="translate(312.000000, 378.000000)">
                    <polygon id="container" points="0 0 24 0 24 24 0 24"></polygon>
                    <path d="M10.284312,17.3921542 L14.2745082,17.3921542 C14.4771228,17.3921542 14.6470578,17.3267722 14.7843134,17.1960531 C14.9215683,17.065334 14.9901958,16.9019351 14.9901958,16.7058564 C14.9901958,16.509778 14.9215683,16.3463791 14.7843134,16.2156597 C14.6470584,16.0849406 14.4771234,16.019581 14.2745082,16.019581 L13.058823,16.019581 L13.058823,11.0294058 C13.058823,10.761432 12.9934634,10.5473792 12.8627443,10.3872473 C12.7320252,10.2271166 12.5424832,10.1470513 12.2941185,10.1470513 L10.4509822,10.1470513 C10.2483676,10.1470513 10.0784326,10.2124108 9.94117703,10.3431299 C9.80392208,10.4738491 9.7352946,10.637248 9.7352946,10.8333266 C9.7352946,11.029405 9.80392208,11.1928039 9.94117703,11.3235233 C10.078432,11.4542425 10.248367,11.519602 10.4509822,11.519602 L11.5000027,11.519602 L11.5000027,16.0196034 L10.2843175,16.0196034 C10.0817029,16.0196034 9.91176791,16.084963 9.77451235,16.2156821 C9.63725739,16.3464012 9.56862991,16.5098001 9.56862991,16.7058788 C9.56862991,16.9019572 9.63725739,17.0653561 9.77451235,17.1960755 C9.9117673,17.3267946 10.0817023,17.3921542 10.2843175,17.3921542 L10.284312,17.3921542 Z M11.9117649,8.50979782 C12.2712418,8.50979782 12.5735287,8.38561484 12.8186256,8.13724887 C13.0637236,7.88888291 13.1862726,7.58822966 13.1862726,7.23528912 C13.1862726,6.87581215 13.0637236,6.57189007 12.8186256,6.32352289 C12.5735275,6.07515692 12.2712406,5.95097394 11.9117649,5.95097394 C11.5588225,5.95097394 11.2581693,6.07515692 11.0098051,6.32352289 C10.7614392,6.57188885 10.6372562,6.87581093 10.6372562,7.23528912 C10.6372562,7.58823148 10.7614392,7.88888473 11.0098051,8.13724887 C11.2581711,8.38561484 11.5588243,8.50979782 11.9117649,8.50979782 Z M12,22 C13.3660119,22 14.6519595,21.7385575 15.8578429,21.2156816 C17.0637262,20.6928057 18.1274512,19.9722181 19.0490178,19.0539188 C19.9705875,18.1356195 20.6928103,17.0718945 21.2156862,15.8627438 C21.7385621,14.6535932 22,13.3660119 22,12 C22,10.6339881 21.7385621,9.34804048 21.2156862,8.14215714 C20.6928103,6.93627379 19.9705875,5.8725488 19.0490178,4.95098215 C18.1274482,4.02941247 17.062088,3.30718969 15.8529373,2.78431381 C14.6437867,2.26143794 13.3562054,2 11.9901935,2 C10.6241816,2 9.33823399,2.26143794 8.13235065,2.78431381 C6.9264673,3.30718969 5.86437596,4.02941247 4.94607663,4.95098215 C4.0277773,5.87255184 3.30718969,6.93627683 2.78431381,8.14215714 C2.26143794,9.34804048 2,10.6339881 2,12 C2,13.3660119 2.26143794,14.6535932 2.78431381,15.8627438 C3.30718969,17.0718945 4.02941247,18.1356195 4.95098215,19.0539188 C5.87255184,19.9722181 6.93627683,20.6928057 8.14215714,21.2156816 C9.34804048,21.7385575 10.6339881,22 12,22 Z M12,20.3333303 C10.8431385,20.3333303 9.7614387,20.1192775 8.75490073,19.6911718 C7.74836581,19.2630661 6.86437931,18.6682942 6.10294122,17.9068561 C5.34150313,17.1454181 4.74673125,16.2597964 4.31862558,15.2499911 C3.89051991,14.2401858 3.67646707,13.1568524 3.67646707,11.9999909 C3.67646707,10.8496639 3.89051991,9.76959784 4.31862558,8.75979257 C4.74673125,7.7499873 5.33986795,6.86436562 6.09803569,6.10292753 C6.85620647,5.34148944 7.73855932,4.7450839 8.74509425,4.31371092 C9.75162917,3.88233794 10.8333289,3.66665146 11.9901935,3.66665146 C13.1470551,3.66665146 14.2287548,3.88233794 15.2352928,4.31371092 C16.2418277,4.7450839 17.1274494,5.34148944 17.8921578,6.10292753 C18.6568632,6.86436562 19.2549024,7.7499873 19.6862754,8.75979257 C20.1176484,9.76959784 20.3333349,10.8496639 20.3333349,11.9999909 C20.3333349,13.1568524 20.119282,14.2401858 19.6911763,15.2499911 C19.2630707,16.2597964 18.6682988,17.1454181 17.9068607,17.9068561 C17.1454226,18.6682942 16.2598009,19.2630661 15.2499957,19.6911718 C14.2401904,20.1192775 13.156857,20.3333303 11.9999954,20.3333303 L12,20.3333303 Z" id="Shape" fill="#FFFFFF" fill-rule="nonzero"></path>
                </g>
            </g>
        </g>
    </g>
</svg>