<?xml version="1.0" encoding="UTF-8"?>
<svg width="20px" height="20px" viewBox="0 0 20 20" version="1.1" xmlns="http://www.w3.org/2000/svg" xmlns:xlink="http://www.w3.org/1999/xlink">
    <title>9B656CF8-8532-4EE2-B867-B9388F4A8D96</title>
    <g id="Page-1" stroke="none" stroke-width="1" fill="none" fill-rule="evenodd">
        <g id="style-guide" transform="translate(-120.000000, -1896.000000)">
            <g id="Group" transform="translate(0.000000, 1660.000000)">
                <g id="icon-list" transform="translate(120.000000, 236.000000)">
                    <polygon id="container" points="0 0 20 0 20 20 0 20"></polygon>
                    <path d="M3.86363636,13.4722222 C4.61675193,13.4722222 5.22727273,14.094049 5.22727273,14.8611111 C5.22727273,15.6281733 4.61675193,16.25 3.86363636,16.25 C3.1105208,16.25 2.5,15.6281733 2.5,14.8611111 C2.5,14.094049 3.1105208,13.4722222 3.86363636,13.4722222 Z M16.838843,14.1666667 C17.2039899,14.1666667 17.5,14.47758 17.5,14.8611111 C17.5,15.2446422 17.2039899,15.5555556 16.838843,15.5555556 L16.838843,15.5555556 L7.25206612,15.5555556 C6.88691917,15.5555556 6.59090909,15.2446422 6.59090909,14.8611111 C6.59090909,14.47758 6.88691917,14.1666667 7.25206612,14.1666667 L7.25206612,14.1666667 Z M3.86363636,8.61111111 C4.61675193,8.61111111 5.22727273,9.23293785 5.22727273,10 C5.22727273,10.7670622 4.61675193,11.3888889 3.86363636,11.3888889 C3.1105208,11.3888889 2.5,10.7670622 2.5,10 C2.5,9.23293785 3.1105208,8.61111111 3.86363636,8.61111111 Z M16.838843,9.30555556 C17.2039899,9.30555556 17.5,9.61646892 17.5,10 C17.5,10.3835311 17.2039899,10.6944444 16.838843,10.6944444 L16.838843,10.6944444 L7.25206612,10.6944444 C6.88691917,10.6944444 6.59090909,10.3835311 6.59090909,10 C6.59090909,9.61646892 6.88691917,9.30555556 7.25206612,9.30555556 L7.25206612,9.30555556 Z M3.86363636,3.75 C4.61675193,3.75 5.22727273,4.37182674 5.22727273,5.13888889 C5.22727273,5.90595104 4.61675193,6.52777778 3.86363636,6.52777778 C3.1105208,6.52777778 2.5,5.90595104 2.5,5.13888889 C2.5,4.37182674 3.1105208,3.75 3.86363636,3.75 Z M16.838843,4.44444444 C17.2039899,4.44444444 17.5,4.75535781 17.5,5.13888889 C17.5,5.52241997 17.2039899,5.83333333 16.838843,5.83333333 L16.838843,5.83333333 L7.25206612,5.83333333 C6.88691917,5.83333333 6.59090909,5.52241997 6.59090909,5.13888889 C6.59090909,4.75535781 6.88691917,4.44444444 7.25206612,4.44444444 L7.25206612,4.44444444 Z" id="Shape" fill="#252525" fill-rule="nonzero"></path>
                </g>
            </g>
        </g>
    </g>
</svg>