<?xml version="1.0" encoding="UTF-8"?>
<svg width="93px" height="28px" viewBox="0 0 93 28" version="1.1" xmlns="http://www.w3.org/2000/svg" xmlns:xlink="http://www.w3.org/1999/xlink">
    <title>E004E34F-370C-4110-9BD1-D6F97A1BD471</title>
    <g id="v4" stroke="none" stroke-width="1" fill="none" fill-rule="evenodd">
        <g id="assets" transform="translate(-200.000000, -80.000000)" fill-rule="nonzero">
            <g id="logo" transform="translate(200.000000, 80.000000)">
                <path d="M20.0632966,1.7966655 C25.966336,5.11461203 27.3408251,12.5533526 23.2331887,20.0802778 C19.6237581,26.6959619 11.7418642,29.5215443 5.86862403,26.1539939 C-0.00554736954,22.7846064 -1.15188615,13.3865136 1.37266659,7.97877517 C5.03797076,0.124831974 13.5409922,-1.87034518 20.0632966,1.7966655" id="thumbprint" fill="#007FA3"></path>
                <path d="M19.9264065,7.50386422 C21.0820575,8.7209958 21.4415106,10.5673614 21.2412971,12.082116 C21.0112844,13.809065 19.9496871,15.4074113 18.1850145,16.4665454 C16.7853823,17.3079737 14.9462117,17.6423404 13.1368403,17.658875 C13.1219406,17.9418007 13.0651359,18.9164245 13.0362679,19.0707476 C12.9943627,19.2976393 12.9133461,19.4207303 12.8146362,19.5474957 C12.62001,19.7982708 12.2829063,19.959024 11.9476651,20.0536387 C11.6822658,20.1271259 11.4187289,20.1601951 11.2315526,20.1601951 C11.2008221,20.1601951 11.1700917,20.1574394 11.1393612,20.1546836 C10.9428726,20.1326375 10.7240346,20.0407785 10.5890069,19.8928855 C10.4539792,19.7431554 10.3776186,19.555763 10.3599253,19.3426502 L10.3450257,19.1497463 C10.3068455,18.9844002 10.0973197,10.5921633 10.1373624,10.7418935 C10.1680929,9.73603756 11.8135686,9.56150549 12.706614,9.73879333 C13.6015218,9.91608117 13.375234,10.9889941 13.3510222,12.3071705 C13.3510222,12.3071705 13.3081858,14.0405496 13.2253067,15.8722178 C14.3651269,15.829044 15.2702782,15.5084562 16.1167623,15.0941721 C17.8274238,14.2564182 18.7325752,12.9731482 18.7325752,11.0836089 C18.7325752,9.19406956 16.8682614,7.07763854 13.4273826,7.07763854 C9.98650387,7.07763854 8.50957999,7.93376426 6.84361729,9.29327726 C6.46833334,9.60008626 6.17872218,9.90873245 5.90587304,10.1117408 C5.63209275,10.3147492 4.90480551,10.3459812 4.71111056,9.87015167 C4.47551047,9.29695162 4.91411774,8.6576131 5.17206727,8.34804833 C5.57715043,7.86211426 6.57449306,6.88381609 7.68078915,6.31520898 C8.94818727,5.66301016 10.4977468,4.96028894 12.6553966,4.90609214 C14.6072455,4.85832546 17.6896025,5.01356715 19.9096444,7.48732961 M12.4635641,21.3984543 C12.2838376,21.2606658 12.0826928,21.1660511 11.8787544,21.1265517 C11.8098437,21.1127728 11.7381393,21.1054241 11.6682974,21.1054241 C11.2846324,21.1054241 10.907486,21.313944 10.6616425,21.6639267 C10.4567728,21.9542011 10.3720313,22.3023467 10.4260424,22.6385506 C10.461429,22.8544192 10.5424456,23.0408929 10.6635049,23.1796 C10.7985326,23.3357603 11.0052647,23.4560956 11.262283,23.5286641 C11.4103479,23.5690821 11.5621377,23.5911283 11.7139275,23.5911283 L11.7148587,23.5911283 C12.046375,23.5911283 12.3443672,23.4919206 12.5762424,23.3082026 C12.8453666,23.0904968 12.991569,22.7827692 12.9887753,22.438298 C12.9850504,22.0387114 12.7894931,21.6483107 12.4635641,21.3984543" id="interrobang" fill="#FFFFFF"></path>
                <path d="M57.7742105,19.5768906 C57.7397553,19.4877874 57.6447703,19.4363464 57.5516475,19.4574739 L57.5227795,19.4657412 C57.2471371,19.524531 57.0348174,19.5079964 56.8858213,19.4087887 C56.6744332,19.2682444 56.5719982,18.9504123 56.5719982,18.4378392 L56.5719982,13.8053906 C56.5719982,11.9957686 55.4787392,11.0780973 53.3201584,11.0780973 C51.3878652,11.0780973 49.8736921,11.9801526 49.8736921,13.1320643 C49.8736921,13.7245547 50.2396639,14.1526176 50.7797749,14.2169188 C51.1327092,14.259174 51.4698131,14.1011765 51.7137942,13.8467271 C52.1887193,13.3525258 52.1281894,12.7637097 51.551761,12.1326385 C51.8925894,11.7808186 52.4960235,11.5732173 53.1841995,11.5732173 C54.3053949,11.5732173 54.7840449,12.2290904 54.7840449,13.7668098 L54.7840449,14.9380119 C54.5214396,15.0179292 54.2755958,15.0932535 53.8248826,15.1979728 C52.9169376,15.4083299 51.6709575,15.6884998 50.7313511,16.2001543 C49.95564,16.6199499 49.5617317,17.2822532 49.5617317,18.1686924 C49.5617317,19.1341303 50.2042772,20.2612401 52.0145801,20.2612401 C53.0286846,20.2612401 53.9366297,19.7872477 54.8687867,18.7694501 C54.9498031,19.826747 55.3558178,20.2235779 56.3410542,20.2235779 C56.8150482,20.2235779 57.1940572,20.1142657 57.6447703,19.8993156 C57.7667606,19.8405259 57.8244966,19.7009002 57.7742105,19.5768906 L57.7742105,19.5768906 Z M54.7840449,18.1613437 C54.5642758,18.4635597 53.8453696,19.3628592 52.9495305,19.3628592 C51.7398683,19.3628592 51.485644,18.5251052 51.485644,17.822384 C51.485644,16.666798 52.3833454,16.1321787 54.7840449,15.547037 L54.7840449,18.1613437 Z M77.9827383,20.3007394 C75.4181428,20.3007394 73.4839873,18.3184225 73.4839873,15.6894184 C73.4839873,13.1155296 75.5019535,11.0211448 77.9827383,11.0211448 C80.4942543,11.0211448 82.462865,13.0374495 82.462865,15.6131754 C82.462865,18.5085706 80.1375946,20.3007394 77.9827383,20.3007394 Z M77.8858911,11.5153461 C76.7777327,11.5153461 75.5047468,11.9856641 75.5047468,15.6508376 C75.5047468,18.4470251 76.3409877,19.8056195 78.0609613,19.8056195 C79.7064373,19.8056195 80.4411744,18.5251052 80.4411744,15.6508376 C80.4411744,12.8684289 79.6049335,11.5153461 77.8858911,11.5153461 Z M38.3339439,11.1864909 C38.3339439,13.3194566 37.8012829,14.4934144 35.0765166,14.4934144 L33.6321856,14.4934144 L33.6321856,8.05042517 L35.1351838,8.05042517 C37.9540038,8.05042517 38.3339439,9.63591127 38.3339439,11.1864909 Z M33.6321856,18.4378392 L33.6321856,15.0859048 L34.9405577,15.0859048 C36.8924066,15.0859048 38.3767803,14.6789695 39.353636,13.8752034 C40.3751906,13.0346937 40.5893724,11.9700481 40.5893724,11.2250717 C40.5893724,8.16065595 37.5917571,7.51764307 35.0765166,7.51764307 L35.0867601,7.51672448 L29.9864372,7.51672448 C29.8709652,7.51672448 29.7769114,7.61042064 29.7769114,7.72340719 L29.7769114,7.73718604 L29.7769114,7.73351168 C29.7769114,7.83823092 29.841166,7.93192708 29.9417384,7.96775209 C30.3961765,8.13309826 31.6300505,7.90161362 31.6300505,9.20692982 L31.6300505,18.436002 C31.6300505,19.1074912 31.3283333,19.5814836 29.9491882,19.7100861 C29.8393035,19.7201906 29.7573557,19.8083752 29.7573557,19.9149317 L29.7573557,19.9470823 C29.7573557,20.0609874 29.8504782,20.1528464 29.9659502,20.1528464 L35.4154827,20.1528464 C35.5309547,20.1528464 35.6250085,20.0609874 35.6250085,19.9470823 L35.6250085,19.918606 C35.6250085,19.8120496 35.5393358,19.7220278 35.4294511,19.7128419 C33.9311091,19.5943438 33.6303231,19.1368861 33.6303231,18.436002 L33.6303231,15.092335 L33.6321856,18.4378392 Z M44.7137709,11.0165518 C42.3419391,11.0165518 40.4115084,13.13482 40.4115084,15.7390222 C40.4115084,18.3753751 42.2208798,20.2887978 44.7137709,20.2887978 C46.8080974,20.2887978 47.8277895,19.054213 48.4116678,18.1264373 C48.4694038,18.0345783 48.4442607,17.9133244 48.3548634,17.8499417 L48.3269265,17.8306513 C48.2365976,17.7672686 48.1108818,17.7856404 48.0410403,17.8719879 C47.2709165,18.8245655 46.5967091,19.3757194 45.4326771,19.3757194 C43.9604093,19.3757194 42.3875692,18.3753751 42.3875692,15.5663274 L42.3875692,15.5461184 C42.3847755,15.4221087 42.3875692,15.2521696 42.3922253,15.0932535 L48.4163239,15.0932535 C48.4330859,15.0932535 48.4461235,15.0803933 48.4470546,15.0638587 L48.4507795,15.016092 C48.5364519,13.8650989 48.2058668,12.8298482 47.5204847,12.1032436 C46.8509337,11.3922551 45.8805966,11.0165518 44.7137709,11.0165518 Z M42.4257494,14.5016817 C42.6241005,12.5799917 43.3839806,11.5263692 44.5778119,11.5263692 C45.1747276,11.5263692 45.617991,11.6898782 45.9308828,12.0260821 C46.3611091,12.4862956 46.5436293,13.3194566 46.4719249,14.5016817 L42.4257494,14.5016817 Z M69.6827244,14.6045638 L69.6808617,14.6045638 C68.0335235,14.1480246 67.3919092,13.6868925 67.3919092,12.9584507 C67.3919092,12.1289641 68.0595981,11.5263692 68.9796487,11.5263692 C70.0617329,11.5263692 70.5254836,12.0371051 71.6680972,13.9211329 L71.6829969,13.9459348 C71.6885841,13.9560393 71.6988279,13.9615509 71.6988279,13.9615509 L71.8664482,13.9615509 C71.9819202,13.9615509 72.0759741,13.8687733 72.0759741,13.7548682 L72.0759741,11.0468653 C72.0759741,11.0303307 72.0620059,11.0165518 72.0620059,11.0165518 L71.8375802,11.0165518 C71.7751881,11.0165518 71.7155899,11.0441095 71.6764782,11.0918762 L71.3114379,11.529125 C70.8514126,11.2792685 70.1017757,11.0165518 69.3493455,11.0165518 C67.4570951,11.0165518 66.1356858,12.1693821 66.1356858,13.8210066 C66.1356858,15.3715863 67.1777272,15.9521351 68.9768553,16.431639 C70.7247658,16.9037941 71.344962,17.3952397 71.344962,18.3073995 C71.344962,19.3224412 70.3485506,19.7780618 69.6408193,19.7780618 C68.3240662,19.7780618 67.7681243,19.2958021 66.5063138,17.0599544 L66.491414,17.0333153 C66.4858268,17.0232108 66.4755831,17.0167807 66.4755831,17.0167807 L66.3061,17.0167807 C66.190628,17.0167807 66.0965741,17.1104769 66.0965741,17.2234634 L66.0965741,20.2575657 C66.0965741,20.2750189 66.1105428,20.2887978 66.1282359,20.2887978 L66.3424179,20.2887978 C66.3973601,20.2887978 66.4513711,20.2667516 66.4904828,20.2281708 L67.0669113,19.6595637 C67.7420501,20.0729291 68.7514985,20.2887978 69.4070815,20.2887978 C70.3913868,20.2887978 71.200622,19.9810701 71.7472517,19.3996028 C72.2352139,18.8805995 72.5034069,18.1457276 72.5034069,17.3300198 C72.5034069,15.9172287 71.7388707,15.1786824 69.6827244,14.6045638 Z M59.7139537,19.0643175 C59.7139537,19.5318797 59.5938256,19.6852842 58.8386016,19.7321323 C58.7287167,19.739481 58.6430443,19.8295028 58.6430443,19.9378964 C58.6430443,20.0518015 58.7370978,20.1436605 58.8525698,20.1436605 L62.5802662,20.1436605 C62.6938755,20.1436605 62.7860672,20.0527201 62.7860672,19.9415708 C62.7860672,19.83134 62.6994632,19.7403996 62.5877161,19.7358066 C61.7254011,19.6944701 61.501907,19.5566816 61.501907,19.0643175 L61.501907,13.6721951 C62.1155844,12.6654206 62.5560543,12.13815 63.3010346,11.979234 C63.2647172,12.106918 63.2414364,12.2584853 63.2414364,12.3824949 C63.2414364,13.0374495 63.7051866,13.4949072 64.3691506,13.4949072 C65.0210087,13.4949072 65.477309,13.0374495 65.477309,12.3824949 C65.477309,11.7633654 65.085263,11.0395166 63.9789673,11.0395166 C63.0728845,11.0395166 62.2068449,11.5520897 61.4627953,12.7784071 L61.4627953,11.3913365 C61.4627953,11.2498736 61.3445299,11.1359685 61.201121,11.1396429 L58.8525698,11.202107 C58.7380294,11.2057813 58.6495626,11.2958031 58.6495626,11.4078711 L58.6495626,11.437266 C58.6495626,11.5392294 58.7240607,11.6264955 58.8237018,11.6402743 C59.6068627,11.7495865 59.7148848,12.1170224 59.7139537,12.4982372 L59.7139537,19.0643175 Z M85.4967984,11.1341313 C85.5508094,11.1341313 85.6029578,11.1552589 85.6411384,11.1929211 C85.6830435,11.2315019 85.7053927,11.2829429 85.7063243,11.3398955 L85.7137737,12.8776148 C85.7137737,12.8776148 86.4792415,11.0735044 88.961889,11.0735044 L88.9842382,11.0735044 C90.5319354,11.0735044 91.4193935,12.0472096 91.4193935,13.7447637 L91.4193935,19.0560502 C91.4193935,19.5236124 91.5404527,19.6770169 92.2947456,19.723865 C92.40463,19.7302951 92.4903028,19.8203169 92.4903028,19.9296291 C92.4903028,20.0426156 92.3962489,20.1353932 92.2817085,20.1353932 L88.9320899,20.1353932 C88.8166179,20.1353932 88.722564,20.0426156 88.722564,19.9287105 C88.722564,19.8184797 88.8073053,19.7284579 88.9134652,19.719272 C89.522487,19.667831 89.6193342,19.5162637 89.6193342,19.0560502 L89.6193342,14.2628483 C89.6193342,12.6791994 89.1630334,12.0637442 87.992483,12.0637442 C87.200941,12.0637442 86.5537395,12.7444193 86.1495875,13.3157822 C86.1495875,13.3157822 85.9428555,13.5711502 85.7193614,14.0524913 L85.7435733,19.0551316 C85.7435733,19.5153451 85.8385583,19.6669124 86.4298865,19.7183534 C86.5360459,19.7275393 86.6198565,19.8184797 86.6198565,19.9241176 C86.6198565,20.0426156 86.5258026,20.1353932 86.4112618,20.1353932 L83.0821301,20.1353932 C82.9675892,20.1353932 82.8735358,20.0426156 82.8735358,19.9287105 C82.8735358,19.8203169 82.9601398,19.7302951 83.069093,19.7229464 C83.823386,19.6760983 83.943514,19.5236124 83.943514,19.0560502 L83.943514,12.4991558 C83.943514,12.1170224 83.8354919,11.7477493 83.048606,11.6375186 C82.9489649,11.6237397 82.8735358,11.5355551 82.8735358,11.4335916 L82.8735358,11.4032781 C82.8735358,11.2902916 82.9629332,11.2002698 83.077474,11.1965954 L85.4967984,11.1341313 Z" id="wordmark" fill="#FFFFFF"></path>
            </g>
        </g>
    </g>
</svg>