<?xml version="1.0" encoding="UTF-8"?>
<svg width="12px" height="12px" viewBox="0 0 12 12" version="1.1" xmlns="http://www.w3.org/2000/svg" xmlns:xlink="http://www.w3.org/1999/xlink">
    <title>307508C1-4CA5-4B0D-9837-8AA287DE3236</title>
    <g id="v4" stroke="none" stroke-width="1" fill="none" fill-rule="evenodd">
        <g id="assets" transform="translate(-200.000000, -326.000000)">
            <g id="icon-question-state-3" transform="translate(200.000000, 326.000000)">
                <path d="M6,0 C2.6862915,0 0,2.6862915 0,6 C0,9.3137085 2.6862915,12 6,12 C9.3137085,12 12,9.3137085 12,6 C11.9964176,2.68777652 9.31222348,0.00358242381 6,0 Z" id="Path" fill="#FFFFFF"></path>
                <path d="M6,0 C2.6862915,0 0,2.6862915 0,6 C0,9.3137085 2.6862915,12 6,12 C9.3137085,12 12,9.3137085 12,6 C11.9964176,2.68777652 9.31222348,0.00358242381 6,0 Z M6,9.5 C5.58578644,9.5 5.25,9.16421356 5.25,8.75 C5.25,8.33578644 5.58578644,8 6,8 C6.41421356,8 6.75,8.33578644 6.75,8.75 C6.75,9.16421356 6.41421356,9.5 6,9.5 Z M6.8,6.46 C6.61770595,6.53955962 6.49990357,6.71960092 6.5,6.9185 C6.5,7.19464237 6.27614237,7.4185 6,7.4185 C5.72385763,7.4185 5.5,7.19464237 5.5,6.9185 C5.49990961,6.32198425 5.85328427,5.7821063 6.4,5.5435 C6.85780912,5.34369564 7.09796437,4.83671075 6.96255628,4.35590349 C6.8271482,3.87509622 6.35771231,3.56795103 5.86291716,3.63642531 C5.368122,3.7048996 4.99974271,4.12798933 5,4.6275 C5,4.90364237 4.77614237,5.1275 4.5,5.1275 C4.22385763,5.1275 4,4.90364237 4,4.6275 C4,3.62860518 4.73698454,2.7828606 5.72649499,2.64625923 C6.71600543,2.50965786 7.6545817,3.12409011 7.92520321,4.08562787 C8.19582472,5.04716562 7.71550222,6.06094207 6.8,6.4605 L6.8,6.46 Z" id="Shape" fill="#00749B" fill-rule="nonzero"></path>
            </g>
        </g>
    </g>
</svg>