<?xml version="1.0" encoding="UTF-8"?>
<svg width="24px" height="24px" viewBox="0 0 24 24" version="1.1" xmlns="http://www.w3.org/2000/svg" xmlns:xlink="http://www.w3.org/1999/xlink">
    <title>0C798F7F-959A-421A-8401-7FA53E20AEC1</title>
    <g id="v4" stroke="none" stroke-width="1" fill="none" fill-rule="evenodd">
        <g id="assets" transform="translate(-236.000000, -304.000000)">
            <g id="icon-restart-again" transform="translate(236.000000, 304.000000)">
                <polygon id="container" points="0 0 24 0 24 24 0 24"></polygon>
                <path d="M11.0465426,18.0115613 C10.5587215,17.9072699 10.0813285,18.230775 9.98025565,18.73413 C9.87918277,19.237485 10.1927042,19.7300798 10.6805254,19.8343712 C14.1675206,20.5765627 17.6961939,18.7726685 19.236496,15.4604708 C20.7767981,12.1482731 19.9327289,8.17931307 17.1898822,5.8369374 C14.4470355,3.49456173 10.5105767,3.3809777 7.64515448,5.5615303 C4.77973225,7.74208291 3.72202524,11.6561684 5.08053334,15.0520094 C5.11327,15.1319802 5.0881144,15.2246824 5.01989142,15.2754843 L4.29796387,15.8162934 C4.06738956,15.988935 3.95677079,16.2853472 4.01557762,16.572971 C4.07438445,16.8605947 4.29161869,17.0856379 4.57013055,17.1474586 L7.41885668,17.7798924 C7.46873854,17.7905381 7.51952441,17.796028 7.57046147,17.7962806 C7.91082804,17.7963854 8.20502965,17.5511704 8.27650662,17.2077968 L8.95872816,13.9301657 C9.02178663,13.6283566 8.89787706,13.3176897 8.64720343,13.1491088 C8.39652979,12.980528 8.0710526,12.9889772 7.82891154,13.1703512 L6.84636813,13.9070733 C6.79929448,13.942464 6.73856217,13.952239 6.68327887,13.933323 C6.62799556,13.9144069 6.58495703,13.8691251 6.5677041,13.811724 C5.77381986,11.1628911 6.79602438,8.29347942 9.06350889,6.80579594 C11.3309934,5.31811245 14.2828727,5.58015067 16.2707892,7.44558595 C18.2587058,9.31102123 18.7909283,12.3184193 17.5702587,14.7884204 C16.3495891,17.2584215 13.6779722,18.5800459 11.0472646,18.0152859 L11.0465426,18.0115613 Z" id="Path" fill="#FFFFFF" fill-rule="nonzero"></path>
            </g>
        </g>
    </g>
</svg>