<?xml version="1.0" encoding="UTF-8"?>
<svg width="24px" height="24px" viewBox="0 0 24 24" version="1.1" xmlns="http://www.w3.org/2000/svg" xmlns:xlink="http://www.w3.org/1999/xlink">
    <title>7988923C-D1EE-41BF-9186-F77B4685D6AB</title>
    <g id="v4" stroke="none" stroke-width="1" fill="none" fill-rule="evenodd">
        <g id="assets" transform="translate(-526.000000, -264.000000)">
            <g id="icon-mute" transform="translate(526.000000, 264.000000)">
                <polygon id="container" points="0 0 24 0 24 24 0 24"></polygon>
                <path d="M6.50048567,15.897243 L9.53393944,15.897243 C9.6425195,15.897243 9.72734762,15.9283794 9.78842379,15.9906521 L14.2978905,20.3601324 C14.5421958,20.5953856 14.774625,20.7666366 14.9951782,20.8738854 C15.2157314,20.9811332 15.4481607,21.0347571 15.692466,21.0347571 C15.9299848,21.0347571 16.1369661,20.9794034 16.3134097,20.8686961 C16.4898524,20.7579887 16.6255775,20.6092257 16.7205849,20.4224071 C16.7409437,20.3739725 16.7596059,20.325538 16.7765715,20.2771038 C16.7935371,20.2286692 16.8121993,20.1733155 16.8325581,20.1110427 L4.8005445,7.84329842 C4.4612314,8.22385478 4.29157485,8.78431099 4.29157485,9.52466707 L4.29157485,13.541267 C4.29157485,14.3231363 4.47989296,14.9112686 4.85652917,15.3056637 C5.23316538,15.7000589 5.78115593,15.8972565 6.50050083,15.8972565 L6.50048567,15.897243 Z M20.1612002,21.7612871 C20.3172842,21.920429 20.5039061,22 20.7210659,22 C20.938226,22 21.1214554,21.920429 21.2707542,21.7612871 C21.4200517,21.6021451 21.496397,21.4135964 21.4998984,21.1956409 C21.5031832,20.9776857 21.4268379,20.789137 21.2707542,20.6299947 L3.84367759,2.86148748 C3.68759362,2.70926494 3.50097174,2.6314239 3.28381192,2.62785394 C3.0666518,2.62450475 2.88002991,2.70234579 2.72394626,2.86148748 C2.57464875,3.01371002 2.5,3.20225875 2.5,3.42713366 C2.5,3.65200793 2.57464875,3.84055665 2.72394626,3.99277984 L20.1612002,21.7612871 Z M16.8936404,3.26621749 C16.8936404,2.92025659 16.7799511,2.62272995 16.5526115,2.37363758 C16.3252718,2.12454586 16.0317661,2 15.6720943,2 C15.427789,2 15.2055386,2.05708345 15.0053432,2.17125036 C14.8051487,2.28541726 14.569327,2.47396599 14.2978782,2.73689653 L10.1141517,6.76387799 C10.046289,6.83307017 9.98181965,6.87458535 9.92074348,6.88842353 L9.50338904,6.90918118 L16.8936404,14.4442221 L16.8936404,3.26621749 Z" id="Shape" fill="#252525" fill-rule="nonzero"></path>
            </g>
        </g>
    </g>
</svg>