<?xml version="1.0" encoding="UTF-8"?>
<svg width="24px" height="24px" viewBox="0 0 24 24" version="1.1" xmlns="http://www.w3.org/2000/svg" xmlns:xlink="http://www.w3.org/1999/xlink">
    <title>4F1C6FFA-8FC2-4898-B16A-B88F2DCB9348</title>
    <g id="v4" stroke="none" stroke-width="1" fill="none" fill-rule="evenodd">
        <g id="assets" transform="translate(-484.000000, -264.000000)">
            <g id="icon-volume" transform="translate(484.000000, 264.000000)">
                <polygon id="container" points="0 0 24 0 24 24 0 24"></polygon>
                <path d="M16.2571067,15.3435161 C16.394788,15.4351191 16.548355,15.4669257 16.7178078,15.438936 C16.8872616,15.4109462 17.0302387,15.3206155 17.1467391,15.1679439 C17.4591699,14.7659075 17.7027594,14.2849915 17.8775075,13.7251957 C18.0522567,13.1654 18.1396312,12.5877926 18.1396312,11.9923737 C18.1396312,11.3918643 18.0522567,10.8129837 17.8775075,10.255732 C17.7027584,9.69848028 17.4591689,9.21883742 17.1467391,8.81680341 C17.0302396,8.66413183 16.8872626,8.57252878 16.7178078,8.54199427 C16.548354,8.51146 16.394787,8.54199427 16.2571067,8.63359708 C16.0876529,8.75064543 15.9910113,8.89568357 15.9671818,9.0687115 C15.9433523,9.24173942 15.9949828,9.41222239 16.122073,9.5801604 C16.3497765,9.8753247 16.5298214,10.2379194 16.6622079,10.6679447 C16.7945935,11.0979699 16.8607864,11.5394455 16.8607864,11.9923715 C16.8607864,12.4503856 16.7932696,12.8931332 16.658236,13.3206144 C16.5232024,13.7480956 16.3418339,14.1119635 16.1141304,14.4122182 C15.9923354,14.580157 15.9433526,14.7493679 15.9671822,14.9198511 C15.9910116,15.0903346 16.0876532,15.2315555 16.2571071,15.3435139 L16.2571067,15.3435161 Z M19.4264235,17.4045829 C19.579991,17.5012749 19.7428256,17.5330815 19.9149273,17.5000027 C20.0870288,17.466924 20.2286811,17.3740487 20.3398841,17.2213769 C20.864131,16.5190882 21.2718787,15.7162898 21.5631272,14.8129818 C21.8543757,13.9096737 22,12.9694704 22,11.9923719 C22,11.0152733 21.8570229,10.072526 21.5710687,9.16412997 C21.2851146,8.25573389 20.8747185,7.45293552 20.3398804,6.75573486 C20.223381,6.60815224 20.0804039,6.51654919 19.9109492,6.48092572 C19.7414954,6.44530224 19.5799844,6.47838112 19.4264161,6.58016233 C19.2781442,6.67685434 19.1934173,6.81044207 19.1722355,6.98092551 C19.1510537,7.15140896 19.1987126,7.31807591 19.3152122,7.48092638 C19.7494378,8.09161178 20.0923173,8.78499525 20.3438508,9.56107678 C20.5953843,10.3371583 20.7211511,11.1475899 20.7211511,11.9923715 C20.7211511,12.8371555 20.5953843,13.6488603 20.3438508,14.4274858 C20.0923173,15.2061114 19.7494378,15.8982228 19.3152122,16.5038202 C19.1987128,16.66667 19.1510539,16.8320637 19.1722355,17.0000015 C19.1934172,17.1679402 19.2781441,17.3028 19.4264161,17.4045807 L19.4264235,17.4045829 Z M11.9042656,19 C12.1743318,19 12.3967402,18.9160306 12.5714908,18.7480919 C12.7462399,18.5801532 12.8336144,18.3664126 12.8336144,18.1068701 L12.8336144,5.93129855 C12.8336144,5.67684551 12.7449159,5.45801571 12.5675189,5.27480914 C12.3901219,5.09160305 12.1637427,5 11.8883814,5 C11.6924505,5 11.5177011,5.04198468 11.3641333,5.12595404 C11.2105658,5.2099234 11.0278737,5.34860033 10.816057,5.54198483 L7.29724268,8.7251871 C7.24428831,8.77098851 7.17809547,8.79388921 7.09866417,8.79388921 L4.72366287,8.79388921 C4.16234816,8.79388921 3.73474172,8.94019935 3.44084355,9.23281964 C3.14694785,9.52543992 3,9.95928233 3,10.5343469 L3,13.4885421 C3,14.0636043 3.14694785,14.4961735 3.44084355,14.7862498 C3.73473926,15.076326 4.1623457,15.2213642 4.72366287,15.2213642 L7.09866417,15.2213642 C7.17809572,15.2213642 7.24428855,15.2442649 7.29724268,15.2900663 L10.816057,18.5038038 C11.0066926,18.6768317 11.1867375,18.8027862 11.3561918,18.8816673 C11.5256456,18.9605477 11.7083377,19 11.9042682,19 L11.9042656,19 Z" id="Shape" fill="#252525" fill-rule="nonzero"></path>
            </g>
        </g>
    </g>
</svg>